HIERARCHY
ROOT root
{
	OFFSET	0	13.1	24.9
	CHANNELS 6  Xposition Yposition Zposition Xrotation Yrotation Zrotation
	JOINT spine_1
	{
		OFFSET	0	9.99999	0
		CHANNELS 3  Xrotation Yrotation Zrotation
		JOINT spine_2
		{
			OFFSET	0	112	-10
			CHANNELS 3  Xrotation Yrotation Zrotation
			JOINT spine_3
			{
				OFFSET	0	206.5	19.3
				CHANNELS 3  Xrotation Yrotation Zrotation
				JOINT spine_4
				{
					OFFSET	0	110.4	14.6
					CHANNELS 3  Xrotation Yrotation Zrotation
					JOINT neck_1
					{
						OFFSET	0	71.8	-50.3
						CHANNELS 3  Xrotation Yrotation Zrotation
						JOINT neck_2
						{
							OFFSET	0	86.2	-25.8
							CHANNELS 3  Xrotation Yrotation Zrotation
							JOINT head_ee
							{
								OFFSET	0	179.8	-8.7
								CHANNELS 3  Xrotation Yrotation Zrotation
								End Site
								{
									OFFSET	1	0	0
								}
							}
						}
					}
					JOINT left_clavicle
					{
						OFFSET	-43.2	22.4	-70.8
						CHANNELS 3  Xrotation Yrotation Zrotation
						JOINT left_shoulder
						{
							OFFSET	-93.9	-5.79999	48.7
							CHANNELS 3  Xrotation Yrotation Zrotation
							JOINT left_elbow
							{
								OFFSET	-291.4	-30.8	15.2
								CHANNELS 3  Xrotation Yrotation Zrotation
								JOINT left_lowarm_twist
								{
									OFFSET	-110.7	-3.89999	13.6
									CHANNELS 3  Xrotation Yrotation Zrotation
									JOINT left_hand
									{
										OFFSET	-110.7	-3.89999	13.6
										CHANNELS 3  Xrotation Yrotation Zrotation
										JOINT left_ee
										{
											OFFSET	-80.8	-5.10001	12.1
											CHANNELS 3  Xrotation Yrotation Zrotation
											End Site
											{
												OFFSET	1	0	0
											}
										}
									}
								}
							}
						}
					}
					JOINT right_clavicle
					{
						OFFSET	43.2	22.4	-70.8
						CHANNELS 3  Xrotation Yrotation Zrotation
						JOINT right_shoulder
						{
							OFFSET	93.9	-5.79999	48.7
							CHANNELS 3  Xrotation Yrotation Zrotation
							JOINT right_elbow
							{
								OFFSET	291.4	-30.8	15.2
								CHANNELS 3  Xrotation Yrotation Zrotation
								JOINT right_lowarm_twist
								{
									OFFSET	110.7	-3.89999	13.6
									CHANNELS 3  Xrotation Yrotation Zrotation
									JOINT right_hand
									{
										OFFSET	110.7	-3.89999	13.6
										CHANNELS 3  Xrotation Yrotation Zrotation
										JOINT right_ee
										{
											OFFSET	80.8	-5.10001	12.1
											CHANNELS 3  Xrotation Yrotation Zrotation
											End Site
											{
												OFFSET	1	0	0
											}
										}
									}
								}
							}
						}
					}
				}
			}
		}
	}
	JOINT left_hip
	{
		OFFSET	-82.8	-127.5	0.300001
		CHANNELS 3  Xrotation Yrotation Zrotation
		JOINT left_knee
		{
			OFFSET	-28.2	-396.7	2.2
			CHANNELS 3  Xrotation Yrotation Zrotation
			JOINT left_ankle
			{
				OFFSET	-11.7	-411.3	35.4
				CHANNELS 3  Xrotation Yrotation Zrotation
				JOINT left_toes
				{
					OFFSET	0	-60	-88.6
					CHANNELS 3  Xrotation Yrotation Zrotation
					JOINT left_foot_ee
					{
						OFFSET	-22.5	-16.5	-42.2
						CHANNELS 3  Xrotation Yrotation Zrotation
						End Site
						{
							OFFSET	1	0	0
						}
					}
				}
			}
		}
	}
	JOINT right_hip
	{
		OFFSET	82.8	-127.5	0.300001
		CHANNELS 3  Xrotation Yrotation Zrotation
		JOINT right_knee
		{
			OFFSET	28.2	-396.7	2.2
			CHANNELS 3  Xrotation Yrotation Zrotation
			JOINT right_ankle
			{
				OFFSET	11.7	-411.3	35.4
				CHANNELS 3  Xrotation Yrotation Zrotation
				JOINT right_toes
				{
					OFFSET	0	-60	-88.6
					CHANNELS 3  Xrotation Yrotation Zrotation
					JOINT right_foot_ee
					{
						OFFSET	22.5	-16.5	-42.2
						CHANNELS 3  Xrotation Yrotation Zrotation
						End Site
						{
							OFFSET	1	0	0
						}
					}
				}
			}
		}
	}
}
MOTION
Frames: 13
Frame Time: 0.02
3177.02 653.055 -1669.29 -3.14719476253 22.8567502504 -1.56696488306 0.906646 0.508699 0.807532 0.906893 0.456285 0.838263 0.913776 0.284518 0.911001 0.912869 0.424818 0.85464 -2.74185 4.13974 3.73769 -2.70202 4.5827 4.48188 -0.0 0.0 -0.0 4.40579 8.72988 8.77955 -23.1962 9.62183 72.4172 0.22238 -6.28653 0.0122121 -20.7418 -1.1725 2.36441 1.55245 -12.5977 5.10715 -0.0 0.0 -0.0 12.0286 14.9523 -24.2647 -5.26149 24.8447 -43.6661 1.45989 35.8717 -0.472563 -47.0988 3.73576 -4.52263 -3.32464 12.9435 29.0581 0.0 0.0 0.0 31.0638 -23.7595 4.56603 0.357962 -0.0149054 -0.0529095 16.3436 3.48327 -2.27293 36.5118 -0.0 -0.0 -0.0 0.0 -0.0 -1.49837 -35.5688 11.8272 -16.1845 -0.321557 -2.45462 36.5348 19.992 5.02645 -2.67104 0.0 0.0 0.0 0.0 0.0 
3164.19044868 651.117 -1693.56056111 -2.55350234931 23.5331657207 -1.3121836979 0.904068 0.302673 0.875113 0.90446 0.246376 0.892598 0.908473 0.0679369 0.923478 0.907345 0.212925 0.901163 -1.54881 4.25129 3.02626 -1.51703 5.23731 3.73044 -0.0 0.0 -0.0 4.67738 9.93118 9.27654 -22.1868 10.5533 70.5575 0.207734 -5.87552 0.0106606 -20.4206 -1.14798 2.33137 1.57509 -12.4937 5.3059 -0.0 0.0 -0.0 11.6245 13.6931 -23.3825 -6.45735 25.2255 -45.6704 1.45519 35.7841 -0.469812 -46.4136 3.6576 -4.48231 -3.34662 13.309 29.3873 0.0 0.0 0.0 29.6649 -25.5145 4.54241 -0.561333 0.0227064 0.0831501 17.892 2.95893 -2.47313 36.7476 -0.0 -0.0 -0.0 0.0 -0.0 -1.95191 -34.7743 12.5164 -19.752 -0.298507 -3.00141 37.7181 20.6482 5.16954 -1.85608 0.0 0.0 0.0 0.0 0.0 
3151.91523557 651.529 -1714.92944674 -3.36281949657 24.9812068167 -0.751691254018 1.31383 0.147046 0.971742 1.31435 0.0849169 0.979128 1.31589 -0.10035 0.977667 1.31456 0.0553064 0.981246 -0.692934 4.15919 2.77072 -0.66337 5.20286 3.43182 -0.0 0.0 -0.0 4.36827 9.34868 8.7254 -21.5994 11.24 70.4359 0.196589 -5.56233 0.00955001 -20.3203 -1.14036 2.32103 1.61913 -12.6649 5.52835 -0.0 0.0 -0.0 11.3544 11.7238 -22.8128 -7.37441 23.1537 -47.6729 1.42431 35.2033 -0.451884 -45.8316 3.5916 -4.44733 -3.2725 12.6711 28.5398 0.0 0.0 0.0 29.3287 -25.748 4.84052 0.00950455 -0.000391371 -0.00140605 17.8456 1.52244 -2.4727 36.8861 -0.0 -0.0 -0.0 0.0 -0.0 -1.31262 -33.9954 12.6122 -22.717 -0.253482 -3.4541 37.443 19.4395 5.09239 -1.02054 0.0 0.0 0.0 0.0 0.0 
3151.44342452 651.529 -1714.66672402 -3.37931411659 25.5741951837 -0.713063225809 1.31383 0.147046 0.971742 1.31435 0.0849169 0.979128 1.31589 -0.10035 0.977667 1.31456 0.0553064 0.981246 -0.692934 4.15919 2.77072 -0.66337 5.20286 3.43182 -0.0 0.0 -0.0 4.36827 9.34868 8.7254 -21.5994 11.24 70.4359 0.196589 -5.56233 0.00955001 -20.3203 -1.14036 2.32103 1.61913 -12.6649 5.52835 -0.0 0.0 -0.0 11.3544 11.7238 -22.8128 -7.37441 23.1537 -47.6729 1.42431 35.2033 -0.451884 -45.8316 3.5916 -4.44733 -3.2725 12.6711 28.5398 0.0 0.0 0.0 29.3287 -25.748 4.84052 0.00950455 -0.000391371 -0.00140605 17.8456 1.52244 -2.4727 36.8861 -0.0 -0.0 -0.0 0.0 -0.0 -1.31262 -33.9954 12.6122 -22.717 -0.253482 -3.4541 37.443 19.4395 5.09239 -1.02054 0.0 0.0 0.0 0.0 0.0 
3111.81688865 663.309 -1757.64110955 -1.44583781004 23.3272704835 -1.03508941911 0.776855 0.0238328 0.811598 0.777221 -0.0278578 0.811469 0.776908 -0.187104 0.790097 0.776042 -0.0599792 0.809729 -0.344765 3.77965 1.55369 -0.32326 5.4865 2.08064 -0.0 0.0 -0.0 6.18847 11.0702 11.909 -18.9704 11.4855 67.5858 0.19882 -5.62504 0.00976742 -19.1897 -1.05575 2.20351 1.50487 -12.8964 4.65438 -0.0 0.0 -0.0 10.4217 11.0915 -20.7449 -10.8412 21.5884 -50.8765 1.40821 34.8971 -0.442637 -44.6101 3.45425 -4.37175 -3.15235 13.4386 27.9642 0.0 0.0 0.0 28.3794 -23.4391 6.15838 -10.3799 0.286261 1.56508 18.3782 0.757365 -2.54399 37.6499 -0.0 -0.0 -0.0 0.0 -0.0 -1.40388 -30.9401 13.7108 -25.8869 -0.179507 -3.93486 34.0938 20.2879 4.7896 -1.3498 0.0 0.0 0.0 0.0 0.0 
3094.2021417 669.167 -1780.21157628 -0.688780611059 23.9901421901 -0.663265990455 0.701928 0.102095 0.448175 0.702036 0.0733696 0.453763 0.702661 -0.0180077 0.459303 0.702371 0.0547559 0.456383 -0.680077 3.43701 1.40473 -0.662814 5.01551 1.89228 -0.0 0.0 -0.0 6.28695 9.79061 12.1163 -16.9027 11.2424 67.9287 0.193778 -5.48327 0.00927952 -18.8068 -1.02763 2.16335 1.49962 -12.9729 4.58523 -0.0 0.0 -0.0 9.86338 9.75924 -19.5382 -12.707 20.1997 -52.0731 1.34076 33.5894 -0.40468 -44.1571 3.40372 -4.34299 -3.05216 14.0119 27.4564 0.0 0.0 0.0 27.0549 -25.3705 7.2078 -11.4418 0.299452 1.72749 18.2321 0.915268 -2.52467 37.4411 -0.0 -0.0 -0.0 0.0 -0.0 -1.17152 -28.4128 13.1549 -28.1283 -0.111194 -4.27204 36.548 20.6638 5.05596 -1.50804 0.0 0.0 0.0 0.0 0.0 
3092.4063268 669.167 -1778.84783881 -0.693902626708 24.9234070916 -0.650894580372 0.701928 0.102095 0.448175 0.702036 0.0733696 0.453763 0.702661 -0.0180077 0.459303 0.702371 0.0547559 0.456383 -0.680077 3.43701 1.40473 -0.662814 5.01551 1.89228 -0.0 0.0 -0.0 6.28695 9.79061 12.1163 -16.9027 11.2424 67.9287 0.193778 -5.48327 0.00927952 -18.8068 -1.02763 2.16335 1.49962 -12.9729 4.58523 -0.0 0.0 -0.0 9.86338 9.75924 -19.5382 -12.707 20.1997 -52.0731 1.34076 33.5894 -0.40468 -44.1571 3.40372 -4.34299 -3.05216 14.0119 27.4564 0.0 0.0 0.0 27.0549 -25.3705 7.2078 -11.4418 0.299452 1.72749 18.2321 0.915268 -2.52467 37.4411 -0.0 -0.0 -0.0 0.0 -0.0 -1.17152 -28.4128 13.1549 -28.1283 -0.111194 -4.27204 36.548 20.6638 5.05596 -1.50804 0.0 0.0 0.0 0.0 0.0 
3091.28562878 669.167 -1777.97307747 -0.69726686732 25.5118024474 -0.642998467948 0.701928 0.102095 0.448175 0.702036 0.0733696 0.453763 0.702661 -0.0180077 0.459303 0.702371 0.0547559 0.456383 -0.680077 3.43701 1.40473 -0.662814 5.01551 1.89228 -0.0 0.0 -0.0 6.28695 9.79061 12.1163 -16.9027 11.2424 67.9287 0.193778 -5.48327 0.00927952 -18.8068 -1.02763 2.16335 1.49962 -12.9729 4.58523 -0.0 0.0 -0.0 9.86338 9.75924 -19.5382 -12.707 20.1997 -52.0731 1.34076 33.5894 -0.40468 -44.1571 3.40372 -4.34299 -3.05216 14.0119 27.4564 0.0 0.0 0.0 27.0549 -25.3705 7.2078 -11.4418 0.299452 1.72749 18.2321 0.915268 -2.52467 37.4411 -0.0 -0.0 -0.0 0.0 -0.0 -1.17152 -28.4128 13.1549 -28.1283 -0.111194 -4.27204 36.548 20.6638 5.05596 -1.50804 0.0 0.0 0.0 0.0 0.0 
3073.48764604 675.079 -1800.38304142 -0.230253761143 25.2690290105 -0.854272275822 0.71416 0.14692 0.397751 0.71424 0.121312 0.406294 0.715142 0.0384845 0.422268 0.714908 0.10469 0.410891 -1.136 2.96545 1.45874 -1.12337 4.15198 1.90531 -0.0 0.0 -0.0 7.22069 8.59477 13.8376 -12.7628 10.4232 65.444 0.228221 -6.45029 0.01286 -18.2789 -0.989298 2.10766 1.50449 -13.7609 4.27064 -0.0 0.0 -0.0 9.664 9.68387 -19.1049 -14.7623 19.6624 -53.22 1.23615 31.4801 -0.348412 -43.4856 3.32925 -4.29961 -2.93145 14.4173 26.7251 0.0 0.0 0.0 27.0133 -24.0794 8.14814 -16.153 0.321609 2.44978 17.306 1.79986 -2.40257 37.7341 -0.0 -0.0 -0.0 0.0 -0.0 -0.888323 -24.58 13.5237 -30.5912 -0.0209668 -4.63924 35.5372 21.208 4.97768 -1.2146 0.0 0.0 0.0 0.0 0.0 
3059.3426849 682.544 -1825.48663981 1.25920740531 27.0317742837 -1.34732482111 0.573269 0.123507 0.357381 0.573335 0.100516 0.364516 0.574011 0.0254403 0.377264 0.573822 0.0847024 0.368512 -2.71333 2.15001 1.43708 -2.70611 2.77387 1.80269 -0.0 0.0 -0.0 8.35336 8.70177 15.9117 -12.4446 7.9388 62.3813 0.259735 -7.33186 0.0166413 -18.1387 -0.97921 2.09282 1.35422 -15.3088 2.57572 -0.0 0.0 -0.0 9.95449 9.56454 -19.7392 -16.7128 17.4024 -54.4625 0.988524 26.0898 -0.22904 -41.5727 3.11995 -4.17131 -2.72452 14.6908 25.3047 0.0 0.0 0.0 26.9057 -23.934 9.68172 -22.4281 0.258899 3.4101 15.1275 2.86569 -2.11631 38.0916 -0.0 -0.0 -0.0 0.0 -0.0 -1.76425 -18.0072 10.9094 -34.946 0.176928 -5.27796 37.9102 20.0975 5.16435 -1.71837 0.0 0.0 0.0 0.0 0.0 
3045.6412369 688.554 -1844.55102842 3.28862871258 28.0033499803 -2.08616111909 0.251952 0.213235 0.203099 0.251953 0.199879 0.216256 0.252729 0.151081 0.252771 0.25269 0.189105 0.225738 -4.61733 1.27768 1.79805 -4.60871 0.982 2.05305 -0.0 0.0 -0.0 8.57099 9.33104 16.2691 -10.0174 6.86036 61.8709 0.28912 -8.15073 0.0205994 -18.3278 -0.992831 2.11284 1.47576 -15.1768 3.44999 -0.0 0.0 -0.0 10.1277 11.0039 -20.0981 -16.2638 14.7818 -56.8316 0.717579 19.5687 -0.123747 -40.6664 3.02231 -4.10811 -2.16297 16.5895 22.0112 0.0 0.0 0.0 24.3759 -24.1468 10.3394 -24.3227 0.219336 3.69814 14.1191 5.71194 -1.97772 38.3595 -0.0 -0.0 -0.0 0.0 -0.0 2.46559 -5.18072 7.89463 -50.0303 1.22481 -7.34035 37.805 14.716 4.95787 0.482126 -0.0 -0.0 0.0 0.0 0.0 
3038.50547828 688.554 -1838.96773793 3.36547486153 30.3695776525 -2.24371098288 0.251952 0.213235 0.203099 0.251953 0.199879 0.216256 0.252729 0.151081 0.252771 0.25269 0.189105 0.225738 -4.61733 1.27768 1.79805 -4.60871 0.982 2.05305 -0.0 0.0 -0.0 8.57099 9.33104 16.2691 -10.0174 6.86036 61.8709 0.28912 -8.15073 0.0205994 -18.3278 -0.992831 2.11284 1.47576 -15.1768 3.44999 -0.0 0.0 -0.0 10.1277 11.0039 -20.0981 -16.2638 14.7818 -56.8316 0.717579 19.5687 -0.123747 -40.6664 3.02231 -4.10811 -2.16297 16.5895 22.0112 0.0 0.0 0.0 24.3759 -24.1468 10.3394 -24.3227 0.219336 3.69814 14.1191 5.71194 -1.97772 38.3595 -0.0 -0.0 -0.0 0.0 -0.0 2.46559 -5.18072 7.89463 -50.0303 1.22481 -7.34035 37.805 14.716 4.95787 0.482126 -0.0 -0.0 0.0 0.0 0.0 
3029.60226344 688.554 -1831.29252598 3.47979848313 33.4393122491 -2.45994863369 0.251952 0.213235 0.203099 0.251953 0.199879 0.216256 0.252729 0.151081 0.252771 0.25269 0.189105 0.225738 -4.61733 1.27768 1.79805 -4.60871 0.982 2.05305 -0.0 0.0 -0.0 8.57099 9.33104 16.2691 -10.0174 6.86036 61.8709 0.28912 -8.15073 0.0205994 -18.3278 -0.992831 2.11284 1.47576 -15.1768 3.44999 -0.0 0.0 -0.0 10.1277 11.0039 -20.0981 -16.2638 14.7818 -56.8316 0.717579 19.5687 -0.123747 -40.6664 3.02231 -4.10811 -2.16297 16.5895 22.0112 0.0 0.0 0.0 24.3759 -24.1468 10.3394 -24.3227 0.219336 3.69814 14.1191 5.71194 -1.97772 38.3595 -0.0 -0.0 -0.0 0.0 -0.0 2.46559 -5.18072 7.89463 -50.0303 1.22481 -7.34035 37.805 14.716 4.95787 0.482126 -0.0 -0.0 0.0 0.0 0.0 
